<svg version="1.0" xmlns="http://www.w3.org/2000/svg" width="1000" height="1045.333" viewBox="0 0 750 784"><path d="M367.1 114.6c0 1.1.3 1.4.6.6.3-.7.2-1.6-.1-1.9-.3-.4-.6.2-.5 1.3zm27.4.5c-.4.6-.5 1.2-.2 1.5.2.3.7-.2 1-1.1.7-1.7.1-2-.8-.4z"/><path d="M372 117c0 1.7-.5 2-3.4 1.6-3.3-.4-3.3-.4-3.1 3.2.3 3.3.2 3.4-.8 1.4-1.2-2.6-2.2-2.8-3.1-.7-.7 1.8-3.2 2-3.9.2-.3-.6-.6-.3-.6.7-.1 1.5-.4 1.7-1.2.9-.8-.8-.6-1.9.6-3.9 1.4-2.4 1.4-2.5.1-1-.9 1.1-1.7 1.7-1.7 1.3-.1-.4-.2-1.1-.3-1.6 0-.5-.4-1.2-.7-1.5-.5-.6-.7.1-1.1 4.3-.2 1.6-.5 1.8-1.7.8s-1.4-.9-.9.4c.3.9.2 2.2-.4 3-.8 1.1-.9 1.1-.5-.3.4-1-.3-2.2-2-3.3-2.4-1.6-2.5-1.6-1.8.7.4 1.2 1.3 2.6 1.9 3 .8.6.8.8-.1.8-.6 0-1.5-.5-1.8-1-.3-.6-1.4-1-2.3-.9-1.1 0-1.2.3-.4.6 1.5.6 1.6 2.3.1 2.3-.6 0-1.8.7-2.6 1.6-1.3 1.2-1.8 1.3-2.4.3-.4-.8-.3-1.9.3-2.6 1.8-2.2-.2-1.4-3.4 1.2-1.6 1.4-2.5 2.5-1.9 2.5.5 0 1.3-.5 1.6-1 .3-.6 1.1-1 1.7-1 .6 0 .8.3.5.6-.3.4-.2 1.6.4 2.6.8 1.5.8 2.3-.1 3.2-.8.8-1 .7-.5-.6.5-1.2.2-1.7-1.2-1.6-1 0-2.2 0-2.8-.2-2-.5-5 0-4 .8 1.2.8 1.6 4.4.5 3.7-.5-.3-1.6.5-2.4 1.7-1.5 2.1-1.6 2.1-2.3.2-.6-1.7-.8-1.7-1.3.6-.5 1.8-1.2 2.4-2.6 2.1-1.8-.3-1.8-.2-.1 1.7 1.8 2 1.8 2-.4 1.5-1.8-.5-2.1-.3-1.6 1.2.6 1.4.3 1.6-1.3 1.2-1.7-.4-1.9-.3-1 .8.9 1.1.6 1.6-1 2.5-2 1.1-2.1 1-1.5-.9.4-1.3.2-2.1-.5-2.1-.6 0-.9.4-.6.9.4.5 0 1.1-.6 1.4-1 .3-1 .7.1 2 1 1.2 1.7 1.4 2.6.7.9-.8 1.2-.4 1.1 1.2-.1 1.3.1 2.8.5 3.3.5.7 0 1.1-1.2 1.2-2.2.2-2.4-.7-.6-2.6 1-1.1.9-1.3-.5-.8-1.2.4-1.8.1-1.8-.8 0-.8-1-2-2.2-2.6-2.3-1.2-2.3-1.2-.5.9 1.2 1.3 1.5 2.2.8 2.7-.6.3-2.1 2.5-3.2 4.8-1.2 2.2-2.7 4.7-3.5 5.4-.7.8-1.1 2-.8 2.8.4 1 0 1.2-1.8.8-2.3-.5-2.3-.5-.3 1 1.9 1.5 4.5 2.4 3.2 1.1-.8-.8 1.3-6.4 2.5-6.4.5 0 .6-.5.3-1-.3-.6-.2-1 .4-1 .5 0 1.3-.9 1.6-2 .8-2.5 2.1-2.6 2.1-.1 0 1.1-.4 1.7-.8 1.5-1.4-.9-2.8 3.2-1.5 4.6 1 1 .7 1.1-1 .5-2.4-.7-3.3 1-1 1.8.8.3.6.9-.7 1.9-1 .8-1.6 2-1.2 2.6.3.6.1 1.4-.5 1.8-.7.4-.9.3-.5-.4 1.2-1.9-1.1-2.2-2.8-.3-1.1 1.2-1.4 2.1-.7 2.6.6.3 1.6 1.6 2.1 2.8 1 2 1 2-.3.4-1.5-1.8-3.2-2.4-2.2-.7.3.5.1 1-.4 1-.6 0-1.1.7-1.1 1.5 0 .7-.8 1.9-1.7 2.5-1.6 1-1.5 1.1.5.7 1.2-.3 1.9-.1 1.6.4-.3.6 0 1.7.8 2.6 1.1 1.4.8 1.3-1.4-.1-1.7-1.1-2.8-1.4-2.8-.7 0 .6.5 1.1 1 1.1.6 0 1 .4 1 .9 0 1.3-3.7 2-4.8.9-.6-.6-1.2-.6-1.6 0-.3.5.5 1.3 1.9 1.6 2.4.6 3.6 2.6 1.5 2.6-.5 0-1 .5-1 1.1 0 .5.5.7 1 .4.6-.4.9-.1.8.7-.2.7.3 1.2 1 1 .8-.1 1.1.2.7.8-.4.7-1.3.7-2.6-.1-1.9-.9-1.9-.9-1 1 1 1.7.8 1.9-.8 1.6-1.1-.2-2.6.4-3.3 1.3-1.2 1.6-1.1 1.6.6.2 1.8-1.4 1.9-1.3 1.4.6-.3 1.2-.1 2.9.5 3.9.6 1.2.6 1.6-.1 1.1-.5-.3-1.2.3-1.5 1.3-.6 2.5 2 3.6 4.1 1.9 1.1-1 1.1-.6-.3 1.5-1.2 1.9-2.1 2.4-2.5 1.6-.6-.8-.9-.8-1.3.2s-.6.9-.6-.4c-.1-.9-.5-1.7-1-1.7-1.7 0-2.1 1.8-1.1 4.4.5 1.4.6 2.6.1 2.6s-1.1.9-1.4 2.1c-.3 1.2-1 1.8-1.5 1.5-.5-.3-.8.7-.6 2.4.4 3.4-3 7.4-5.8 6.7-.9-.3-1.9.1-2.2.9-.3.8 0 1.1 1 .7 2.1-.8 1.7 1.1-.6 3.2-1.8 1.7-1.9 2-.5 2.8 1 .5 2.2.4 3.3-.4 1.6-1.2 1.6-1.2.1.4-1.2 1.4-2.1 1.6-4.2.8-2.5-1-3.9.1-1.8 1.4.5.3.9 1.9.9 3.5-.1 2.6-.2 2.8-1.4 1.2-1.7-2.3-2.9-.9-1.4 1.7.8 1.7.8 2.1-.4 2.1-.8 0-1.6.6-1.9 1.2-.3 1-.8 1-2.3-.2-1.2-.9-1-.4.5 1.3 1.4 1.5 1.9 2.7 1.3 2.7-.6 0-.9.7-.6 1.5.4.8.1 1.5-.5 1.5s-1.1.5-1.1 1.1c0 .5.5.7 1 .4.6-.3 1-.1 1 .4 0 1.4-1.3 1.4-2.8-.1-1.3-1.3-1.7-.1-1.2 3.2.2 1.2-.2 1.2-1.7-.3-1.1-.9-2.5-1.7-3.1-1.7-.7 0-1.2-.5-1.2-1 0-1.5-1.7-1.2-2.3.4-.4 1.1-.1 1.3 1 .9s1.4-.2.9.5c-.4.7-.2 1 .6.7.9-.4 1.4.4 1.6 2.5.2 2.8 0 3-1.7 2-2.5-1.3-4.1-1.3-4.1.1 0 .5.5.7 1 .4.6-.3 1-.2 1 .4 0 1.9-2.3 2.4-3.2.7-.8-1.4-1.3-1.5-2.4-.5-.8.6-1.4 1.8-1.4 2.5 0 .8-1 1.4-2.2 1.4-2.1 0-2.1 0-.2 1.5 2.4 1.8 3.5 1.9 2.8.1-.3-.8 0-1.7.5-2.1.6-.3.9-1.1.6-1.6-.4-.5-.2-.9.4-.9 1.4 0 3.4 3.8 2.7 5.3-.2.7-.5.4-.5-.6-.1-.9-.5-1.7-1.1-1.7-.5 0-.7.7-.4 1.5.8 2.1-2.2 3-5.2 1.7-1.3-.7-2.4-.8-2.4-.3 0 1 4.5 3.1 6.8 3.2 1.4 0 1.3.2-.3.8-1.2.5-2.5.3-3.3-.6-1.2-1.2-1.6-1.1-2.7.4-.7 1-1.7 1.5-2.1 1.1-.4-.5-1.3.1-2.1 1.2-.8 1.2-2 1.7-3 1.3-1.1-.5-1.4-.3-.8.6.5 1 .2 1.1-1.3.7-1.1-.4-2.3-.2-2.7.3-.3.7 0 .8.9.5 1.3-.5 1.3 0 .4 3.3-1.3 4.9-2.4 6.1-4 4.4-.9-1-.9-1.2-.1-.7.6.3 1.4.2 1.7-.3.3-.5-.1-1.2-1-1.5-.8-.3-1.2-1-.9-1.6.4-.6-.1-.7-1-.3-1.2.4-1.3.8-.5 1.3s-.1 1.8-2.6 3.9c-2.1 1.7-3.4 3.1-2.8 3.1.6 0 1.9-.9 2.9-2 1.4-1.5 2-1.7 2.6-.8.9 1.4-.9 4.1-2.1 3.3-.7-.4-7.8 2.1-9 3.2-.2.2.1.8.9 1.2 1 .7.9 1-.3 1.4-.9.4-1.6.2-1.6-.4 0-.6-.8-.5-2.2.2-2.1 1.1-2.1 1.2-.3 2.5 2.5 1.8.7 1.8-2.7 0-1.6-.8-2.8-1.1-2.8-.6 0 .4.6 1 1.3 1.3.9.3.9.8-.2 1.8-.9.9-1.1.9-.7.1.4-.6.2-1.2-.3-1.2-1.5 0-1.4 3.3.1 4.8.9.9.9 1.2.1 1.2-.7 0-1.5-.9-1.8-2-.8-2.6-2.2-2.6-3 .1-.4 1.2-1.2 1.8-2.1 1.5-.8-.3-1.4.1-1.4 1.1 0 1.3-.3 1.3-1.5.3-1.3-1.1-1.3-1.5-.3-2.1.8-.5.8-.9.2-.9-1.2 0-4.4 3.2-4.4 4.5 0 .5.6.1 1.3-1 1.3-1.7 1.4-1.7 1.9.3.4 1.3.1 2-.5 1.9-.6-.1-1.1.3-1.2 1 0 1.8-2.5 4.1-2.5 2.4 0-.9-.5-.8-1.6.3-.8.9-1.9 1.4-2.4 1.1-.4-.3-1 .5-1.3 1.6-.3 1.2-1 1.8-1.6 1.4-.8-.4-.8-1.3.1-2.8 1-1.9.9-2-.4-.9-1.2 1-1.7 1-2 .1-.2-.7-1.4.4-2.6 2.4-1.2 2.1-1.9 3.7-1.6 3.7.8 0 3-2.3 3.3-3.5.4-1.5 1.1-2 1.2-.9.8 6.4.8 6.9-.3 5.1-.9-1.8-1.1-1.8-2.5.3-1.4 2-1.6 2-2.9.3-1.1-1.5-1.3-1.5-1.4-.3 0 .9.6 2.2 1.3 2.9 1 1.1.9 1.2-.2.6s-1.3-.4-.8.8c.5 1.3.1 1.7-1.6 1.7-1.6 0-1.8.3-.8.9 1.1.7 1.1 1 0 1.7-.8.5-2.3.9-3.3.9-1.1 0-2.1.6-2.3 1.2-.3.7 0 1.3.7 1.3.6 0 .9-.4.5-.9-.7-1.2 4.2-.8 5.3.4.4.4.1.5-.5.1-.8-.4-1.3-.2-1.3.7 0 .8-1.6 3.1-3.5 5.1-1.9 2.1-3.5 4.4-3.5 5.2 0 1.2-.4 1.3-2.1.3-1.7-.9-2-.8-1.4.2.6.9.3 1.1-1.1.5-1.1-.4-.7.3 1.1 1.8 1.6 1.3 3.2 2.3 3.5 2.1.3-.2.6.4.6 1.4 0 1.2-.6 1.7-1.7 1.4-1-.3-1.5-1.1-1.2-1.9.6-1.7-.3-1.8-2-.4-.7.6-2.1 1.7-3.2 2.5l-2 1.5 2-.7c1.6-.5 1.5-.1-.7 2.2-3.3 3.3-3.8 5.5-.6 2.5 1.6-1.5 2.4-1.7 3-.8.4.8-.2 2.1-1.8 3.4-2 1.8-2.2 2.3-.9 2.8.8.3 1.5 0 1.5-.6s.3-.9.6-.6c.3.4-.2 2.1-1.1 3.9-.9 1.7-2 2.7-2.4 2.2-.4-.7-1.1-.6-1.9.3-1 1.2-1 1.4.2 1.4 2.3 0 3.6 3.1 2 4.8-.8.7-1.4 1.9-1.4 2.5 0 .7.7.3 1.5-.7.8-1.1 1.8-1.7 2.1-1.3.4.3-.1 1.3-1 2.2-1.9 1.9-2 2.7-.5 4.2.8.8.4 1.5-1.6 2.6-1.8.9-2.4 1.7-1.6 2.1.6.4 1.1.2 1.1-.5 0-1 .2-1 1.3 0 1 1 .8 1.5-.6 2.6-1.7 1.2-1.6 1.3.5 1.8 1.3.4 2.9 1.7 3.7 2.9 1.3 2.1 1.3 2.2-.1 1-1.4-1.1-1.6-.8-1.5 2.3.1 1.9.5 3.5 1 3.5.4 0 .5-.4.2-1s.1-.7 1-.4c1.1.5 1.3 1 .5 1.9-.5.6-.7 1.5-.3 1.8 1 1-.6.8-3-.4-2-.9-2-.8.2.9 1.3 1.1 2.1 2.4 1.7 3-.3.6 0 1.3.6 1.5 1 .4 1 .7 0 1.5-1.1.7-1.1 1 .2 1.5 1.2.5 1.3 1.3.6 3.9-.7 2.2-.6 3.5.2 4.3.8.7.9.6.4-.3-.4-.7-.1-2.3.7-3.6 1-1.5 1.2-2.7.5-3.9-.7-1.3-.5-1.7.7-1.7 1 0 1.3.5.9 1.2-.5.8-.2.9.9.5 2.1-.8 2.2.2.3 1.7-.8.6-1.7 2.1-2.1 3.4-.6 2.1-.5 2.2 1.4 1 1.2-.7 1.6-1.5 1-1.9-.8-.5-.8-.9 0-1.3.6-.4 1.1-.4 1.2.1.3 3.3.7 5.1 1.4 7.3.7 2.3.6 2.4-.9 1.1-.9-.8-1.5-2-1.2-2.7.4-1.1.2-1.1-1.4-.2-1.1.7-2.2 1.9-2.5 2.6-.2.7-.1 1.1.4.7.5-.3 1.6-.2 2.5.1 1.3.5 1.4.9.5 2-1.3 1.6.2 1.9 1.8.3.8-.8 1.3-.7 1.8.1.4.6.2 1.7-.4 2.3-.9.9-.6 1.6 1.1 2.9 1.7 1.3 1.9 1.8.8 1.8-.9 0-2-.4-2.6-1-.6-.6-1-.3-1.1 1-.2 2.7 1.4 3.4 3.3 1.5 1.5-1.5 1.8-1.5 3.4.2.9 1 1.3 2 .9 2.1-.5.2-.9 1.1-.9 2 0 1.2.3 1.3 1.2.4 2.1-2.1 2.9-1.3 1.2 1.3-1 1.6-1.2 2.5-.5 2.5.6 0 1.4-.7 1.7-1.5.5-1.3.8-1.3 2.1 0 .8.8 1.1 1.9.8 2.5-.3.5-.2 1 .4 1 .5 0 1.2 1.3 1.6 2.9.4 1.7 1.1 2.8 1.8 2.5.7-.2 1.7.4 2.3 1.4 1 1.5.8 1.8-.7 1.8-1.1 0-1.9-.4-1.9-.9 0-.4-.4-.6-.9-.3s-1.4-.7-1.9-2.4c-.8-2.2-1.5-2.8-2.8-2.3-1.7.6-1.7.7 0 1.3 1 .3 1.7.9 1.7 1.3-.4 4 0 4.8 2.1 4.2 1.7-.6 2-.4 1.5.9-.4 1-.3 1.5.3 1.1.6-.3 1-.1 1 .4 0 .6.7 1.1 1.6 1.1 1.4 0 1.4-.3.4-1.5-1.6-1.9-.3-2 1.6 0 1.3 1.2 1.1 1.6-1.3 2.9-1.6.8-2.2 1.5-1.5 1.6.9 0 1 .5.3 1.8-1.1 2.2.3 4.2 2.8 4.1 1 0 .6-.5-.9-1.2l-2.5-1.1 3.2-.4c1.7-.2 3.7-1 4.3-1.8.7-.8 1.6-1.4 2.1-1.4s0 .9-1.1 2c-1.4 1.4-1.8 2.8-1.4 4.5.4 1.6.2 2.5-.6 2.5-.6 0-.8-.5-.5-1 .3-.6.1-1-.6-1-.8 0-1 1.2-.6 3.6.5 3.2.4 3.4-1.1 2.2-1.5-1.2-1.6-1.1-.3.5.8 1 2 1.6 2.7 1.3.7-.2 2 .5 3.1 1.6 1.8 2 1.8 2.1-.4 1.4-1.3-.4-2.3-.3-2.3.2 0 .6 1.2.9 2.6.7 1.9-.2 2.4.1 1.9 1.2-.4 1.1-.1 1.3 1 .9.9-.3 1.3-.2 1 .4-.3.6-.1 1 .4 1 2.8 0-.6-5.9-4.1-7.3-1.1-.4-1.5-1.2-1.2-2.2.5-1.1.2-1.4-1.2-.8-1.2.4-1.5.3-1-.6.5-.7 1.6-.9 2.8-.5 1.6.5 2 .3 1.5-.9-.4-1.1-.2-1.4.9-1 1.3.5 1.3.8-.1 2.3-2 2.2-1.9 3 .5 2.5 1.1-.2 1.8 0 1.5.5-.3.6.5 2.9 1.9 5.3 2.3 3.8 2.4 4.3.8 4.2-.9 0-2.3-.4-2.9-.8-1.9-1.2-2.6 1.3-.9 3.1 1.6 1.9.8 4.5-1.4 4-.7-.2-1.5.3-1.7 1-.4.9.1 1 2 .3s2.8-.6 3.7.4c1.7 2.1.2 3.9-1.8 2.3-1.5-1.1-1.5-1.1-.5.3.7.9 1 1.9.6 2.2-.3.4-.1.7.5.7.5 0 1.3-.6 1.6-1.3.5-.9.7-.9 1.2 0 .3.7 1.1 1 1.7.7 1.6-.6 2 3.3.5 4.2-.7.5-.9.2-.6-.7.4-1-.1-1.5-1.3-1.5-1.3 0-1.5.4-.8 1.2.7.8.6 1.4-.1 1.9-.6.3-.8 1.1-.4 1.6.4.6 1.1.6 2-.2 1.1-.9 1.4-.8 1.4.8 0 1.1-1 2.5-2.2 3.2-2.3 1.1-2.3 1.1-.1.6 1.5-.4 2.5 0 3.3 1.4.9 1.7.8 2-.5 1.5-1.1-.4-1.3-.2-.9.9.3.8.1 1.8-.5 2.1-.6.4-.8 1.3-.5 2.1.4.8 1 1.2 1.5.9.5-.3.9-.1.9.4s-1 1.4-2.2 2c-1.9.9-2 1.1-.5 1.1 1.1.1 1.5.6 1.1 1.2-.4.7-.1 1 .7.7 1.4-.5 1.5-.8 1.8-4.6.1-1.8 4.1-2.9 4.1-1.1 0 .5-.6.9-1.4.9-2.2 0-2.7 2.8-.8 4 1.6 1.1 1.6 1.1-.1.6-1.5-.5-1.7-.2-1.2 1.7.5 1.8.4 1.9-.5.7s-1-1.1-.5.7c.4 1.6.1 2.3-1.2 2.6-1 .2-.8.3.5.2 1.3-.1 2.2.3 2.2 1.1s-.6 1.1-1.5.8c-.8-.4-1.5-.1-1.5.5s.3 1 .8.8c1.2-.3 6.6 4.3 5.8 5-.4.4-1.1.1-1.7-.7-.7-1.1-.8-.7-.3 1.2.7 2.9-.4 3.6-2.4 1.6-.9-.9-1.2-.9-1.2 0 0 .7.5 1.2 1 1.2.6 0 1 .7 1 1.5s.4 1.5.9 1.5 1.1.9 1.4 1.9c.3 1.4.1 1.8-.9 1.4-.7-.3-1.2-1-1.1-1.6.1-.7-.5-1.2-1.3-1.2s-1.5.5-1.5 1.2-.9 1.9-2 2.7c-1.1.9-1.5 1.6-.8 1.6.6 0 1.5-.5 1.8-1 .8-1.3 4.5-1.3 4.5 0 0 .5-.9 1-2 1s-2 .5-2 1.1c0 .6-.7.9-1.4.6-2.1-.8-.9 2.3 1.6 4.4 1.9 1.5 1.9 1.7.3 3.2-.9.9-1.4 2.1-1 2.6.3.6-1.1 1.8-3.2 2.8-3.6 1.7-3.6 1.7-1.3 2.3 1.4.4 2.8.2 3.2-.4.4-.6 1-.7 1.3-.4 1.2 1.2-1.9 3.5-4 3.1-1.6-.4-1.7-.3-.5.6 1 .7 1.1 1.1.3 1.1s-1 .7-.6 1.7c.7 1.7.6 1.7-1.1.1-2.1-2.2-2.3-2.2-2.3-.3 0 .8.4 1.5.8 1.5s1 .7 1.3 1.6c.3.9.2 1.2-.5.9-1.3-.8-4.1 1.4-3.3 2.7.3.5 1.1.4 2-.3 2.2-1.8 4.2-.4 3.6 2.7-.3 1.8-.1 2.5.6 2 .6-.3 1.3-.2 1.7.3.3.6-.3.8-1.5.6-1.1-.2-2 0-2 .6 0 .5-.4.8-.8.6-1.4-.4-6.3 5.6-5.8 7 .4 1.1.1 1.1-1.4.3-2.2-1.2-2.9.3-.7 1.7.6.4 1.9 1.7 2.7 2.8.8 1.1 1.1 1.7.6 1.3-1.6-1.3-4.5 1-3.9 3.2.4 1.7.2 1.9-1.3 1.3-1.6-.6-1.7-.4-.7.8 1.5 1.8.1 4.5-1.7 3.4-.9-.5-1.1-.4-.6.3 1 1.7 1.9 1.5 4.3-.7 2.6-2.4 5.1-1.3 3.3 1.5-1 1.6-1.1 1.6-.6.1.7-2.3-1.1-2.2-2.5.2-.8 1.2-2 1.7-3.3 1.3-1.7-.4-1.9-.2-.9.8.9.9.9 1.9.2 3.3-.9 1.5-.8 1.8.2 1.2.7-.5-1.3 2.2-4.4 5.8-7.6 8.9-8.3 13.5-3.6 21.3 1.5 2.5 12.7 11.4 14.4 11.4.2 0 3.2 1.3 6.7 2.9 3.5 1.5 8.9 3.9 12.1 5.1 3.9 1.7 5.3 2.6 4.5 3.3-.9.5-.6.6.8.2 1.2-.3 3.4 0 5 .6 1.6.7 3.1 1.3 3.4 1.4 3.2.8 4.9 1.8 4.5 2.6-.3.5 0 .6.8.3 1.8-.7 9.9 1.4 9.3 2.4-.2.4 1 .8 2.7.9 1.7.1 3.3.6 3.6 1 .3.5 2.2 1 4.1 1.1 1.9.2 3.7.8 3.8 1.3.2.5.7.7 1.2.4.4-.3 2.6.2 4.9 1 2.3.8 4.9 1.1 5.8.8 1.3-.5 1.5-.2 1 1.2-.6 1.4-.5 1.6.6.6 1-.8 2.3-.8 4.3-.1 4.5 1.5 25.6 3.7 38.9 4 6.6.2 30.5.3 53 .2 48.4-.1 54.1-.7 80.6-8.7 43.5-13.1 68.2-18.3 115.4-24 27.8-3.4 46.1-8.2 62.2-16.3 16.6-8.3 18.8-16.8 6.1-23.2-3-1.4-3.9-3.4-1.1-2.3 1.3.5 1.5.2 1-1.8-.6-2.3-.5-2.3.8-.5 1.8 2.4 2 4 .3 3-.7-.4-.8-.3-.4.5.9 1.3 4.8-2.3 6.6-6.2 1-1.9.9-2-.2-.6-.9 1.1-1.9 1.4-3.3.8-1.1-.4-1.4-.8-.7-.8.6-.1 1.2-.6 1.2-1.2s-.8-.8-1.9-.4c-1.1.3-2.2.1-2.6-.4-.4-.7.1-.8 1.1-.4 1.4.5 1.6.3 1-1.3-.6-1.5-.2-1.4 2 .6 2 1.8 2.6 2 2.1.8-.3-1-.2-2 .3-2.3.6-.4 1 .2 1 1.1 0 1 .3 1.4.7 1.1.8-.8-1.7-5.8-2.6-5.2-.4.2-1.3-.1-2.1-.6-1.1-.7-.7-.8 1.3-.5 1.5.3 2.7.1 2.7-.4s.7-.7 1.5-.4c.9.4 1.5 0 1.5-1 0-.9.6-1.6 1.3-1.6.8 0 .7-.4-.3-1-1.5-1-1.1-1.6 2.5-3.5.6-.3.5-.7-.3-1.1-.6-.3-.9-1-.6-1.6.9-1.3-3.9 1.2-4.8 2.6-.6.8-.8.8-.8 0 0-.6.7-1.7 1.5-2.4 1.3-1.1 1.3-1.5.3-2.1-1-.7-1-.9-.1-.9s1-.7.3-2.8c-.9-2.4-.9-2.5.4-.9.8 1 2 1.5 3 1.1.9-.3 1.6-.1 1.6.5s-.4 1.1-1 1.1c-.5 0-1 .5-1 1.1 0 .8.5.7 1.5-.1.9-.7 1.3-2.1 1-3.1-.4-1.2-.1-1.9.6-1.9s.9-.3.6-.6c-.4-.4-1.4-.1-2.2.6-1.2 1-1.9 1-2.7.2-.7-.7-.8-1.2-.4-1.2.5 0 .2-.7-.5-1.6-1.2-1.5-1.1-1.6.7-1 1.7.5 2.3.2 2.7-1.6.6-2.1.5-2.2-.8-.5-.9 1.3-1.5 1.5-2.1.6-.4-.7-.1-1.7.8-2.3.8-.6 1.4-2.5 1.4-4.2-.1-2.4-.6-3-2.3-3.2-1.2-.1-2.5.4-2.9 1-.5.7-.2.9.9.5.8-.3 2.1.1 2.7.9 1.5 1.7 1 1.7-2.6.4-2.6-1-2.6-1.1-.9-3 1-1.1 1.5-2 1-2-.4 0-.2-.7.6-1.6 1-1.3 1-1.7-.1-2.4s-1.1-1.1 0-2.4c1.1-1.4 1-1.6-.3-1.1-.8.4-1.8.2-2.2-.4-.3-.6-.1-1.1.5-1.1.7 0 .5-.7-.4-1.6-.9-.8-2.1-1.2-2.8-.8-.7.4-.5-.2.5-1.3 1.6-1.9 1.6-2-.3-1.8-1.1.1-2.3.4-2.6.8-1.1 1-2.4.8-2.4-.4 0-.5.4-.8.9-.4 1.7 1 2.1-1.2.6-2.5-2-1.7-1.9-3 .3-3.1.9 0 .3-.5-1.4-1-1.8-.5-3.9-2-4.8-3.4-.9-1.4-2.2-2.3-2.7-1.9-.7.4-.7 0 0-1.4.7-1.2.7-2.3.2-2.6-.5-.4-1.1 0-1.4.6-.2.7-.7 1-1.1.7-.9-.9.4-4 1.5-3.3.5.3.9 0 .9-.5 0-.6.8-1.1 1.8-1.2.9 0 1.2-.3.5-.5-.7-.3-2.1 0-3.2.5-1.7.9-2.2.7-3.2-1.1-1.1-2.1-1.1-2.2.5-.9.9.8 2 1.1 2.3.7.9-.9-1.7-2.6-3.9-2.6-1 0-1.8-.5-1.8-1 0-.6-1-1-2.2-1-2.2-.1-2.2-.2-.5-1.4 1.4-1.1 1.5-1.5.4-1.9-.7-.3-1.9.4-2.6 1.5-1.2 1.9-1.2 1.9-3.1-.2-1.1-1.2-2.5-1.9-3.2-1.5-.7.3-.3-.2 1-1.1 2.2-1.7 3-4.4 1.2-4.4-.5 0-1 .7-1 1.5 0 .9-.6 1.2-1.5.9-.8-.4-1.5-1.2-1.5-2s-.5-1.4-1.1-1.4c-.5 0-.8-.4-.5-.9.3-.5 1.5-.7 2.6-.4 1.2.3 2 0 2-.6 0-.7-.6-1.1-1.2-1-2.9.3-3.8-.2-3.9-2.4 0-2.1-.1-2.1-.8-.2-.5 1.1-.4 2.3.1 2.6.5.3.2 1.2-.7 1.9-1.5 1.3-2 .5-1.6-2.8.3-2-1.7-1.4-2.4.8-.3 1.1-1.1 2-1.7 2-.5 0-.8-.6-.5-1.4.3-.8 0-2.2-.8-3.2-.7-1-1.1-2.4-.8-3 .2-.7-.1-1.5-.7-1.9-.6-.3-1-.3-.9.2.4 2.2-.3 2.5-1.7.7-.8-1-1.2-1.2-.8-.4.6 1.2.4 1.3-.6.3-1.1-1-1.7-.9-3.2.4-2 1.8-2.5.4-.6-1.5.8-.8.8-1.2.1-1.2-.6 0-1.3-.7-1.6-1.4-.4-1-.1-1.3.9-.9.7.3 1.4.9 1.4 1.4 0 1.8 1.8.8 2.3-1.2.4-1.5.3-1.9-.4-1.2s-2 .6-4-.4c-3-1.5-4.1-3-1.4-2 .8.4 1.7.2 2-.3 1-1.6 2.5-1.1 1.9.5-.4.8-.4 1.5-.1 1.5 1.5 0 1.3-3.1-.4-4.6-1.6-1.5-1.9-1.5-1.4-.2.4.9.2 1.9-.4 2.2-.5.4-1.2-.3-1.6-1.4-.4-1.1-1.1-1.7-1.7-1.4-.7.5-.9.1-.5-.9.3-.9 0-1.8-.9-2.1-1-.4-1.1-1.1-.4-3.1l1-2.5-4 2c-3.4 1.7-4 1.8-4 .5 0-.9.8-1.8 1.8-2.1 2.4-.8 6.1-2.6 4-2-.9.3-1.9 0-2.2-.7-.3-.9-.5-.9-.5 0-.2 2.3-2.1 1.4-2.1-1 0-1.2-1.6-4.2-3.5-6.6-1.9-2.4-3.5-4.8-3.5-5.4 0-.6-.3-.8-.6-.5-.3.3-1.7-.5-3.1-1.8-2.5-2.3-2.5-2.5-.8-3.8 1.3-.9 1.5-1.5.6-2-.6-.4-.9-1.1-.6-1.6.3-.5.1-1.1-.5-1.5-.5-.3-1-.1-1 .6 0 .8-.4.9-1.3 0-1-.7-1.7-.7-2.4 0-.8.8-1.3.8-1.7 0-.4-.6 0-1.1.8-1.1.9 0 1.6-.5 1.6-1.1 0-.6-.7-.9-1.4-.6-1 .4-1.3.1-.9-.9.6-1.6 1.2-1.7 3.2-.5.8.5 1 1.4.6 2.2-.7 1.2-.6 1.2.6.1 1.2-1.1 1-1.6-1.2-3.2-1.9-1.5-2.5-2.7-2.4-5.3.2-3-.1-3.4-2.1-3.1-1.5.1-2.4-.4-2.7-1.8-.8-2.7.2-4.8 2.1-4.8 1.2 0 1.3-.3.4-1.2-.9-.9-1.6-.7-3.2.7-1.1 1-2 1.4-2 .9 0-.5 1-1.5 2.1-2.2l2.1-1.4-2.1-1.4c-1.2-.9-1.9-2-1.5-2.5 1.2-1.9 1.2-6 0-5-1.4 1.1-4.6 1-4.6-.1 0-.5.6-.8 1.3-.6 1.5.3 5.7-2.3 5.7-3.6 0-.4-.6-.3-1.4.3-1 .9-1.5.8-2-.4-.3-.8-1.2-1.5-2.1-1.5-.8 0-1.5-.5-1.5-1.1 0-.6.6-.9 1.3-.6 1 .4 1.3-.4 1.2-2.8-.1-4.3-.8-5-3.4-3.5-1.4.7-2.1.7-2.1 0 0-.5.4-1 1-1 .5 0 .7-.6.4-1.4-.3-.8-.1-1.7.4-2 .6-.3 1.2.1 1.6.9.3.8 1.1 1.5 1.8 1.5s-.1-1.4-1.9-2.9c-2.9-2.7-3-3.1-1.6-5 1.2-1.7 1.2-2.5.3-3.6-.7-.8-1.7-1.2-2.3-.8-.6.4-.3.9.9 1.4 1.8.7 1.8.8-.2.8-3.2.1-3.6-1-1.3-3.5 1.4-1.5 1.7-2.4.9-2.9-.6-.4-1.4-.4-1.7-.1-.4.3-.1.6.6.6s.9.4.6 1c-.3.6-1.1 1-1.7 1-1 0-.8-1.6.8-5.4.5-1.4.4-1.7-.4-1.2-.7.4-1.2.2-1.2-.3 0-.6-.7-1.1-1.5-1.1-1.2 0-1.3-.4-.5-1.9.5-1.1.7-2.7.4-3.5-.3-.9-.1-1.6.5-1.6s1.1.4 1.1.9.8 1.2 1.7 1.5c1.6.6 1.6.6 0-1.2-.9-1-1.4-2.2-1-2.7.5-.4 0-.5-.9-.2-1 .3-2 .2-2.3-.3-.4-.6-.1-1 .5-1s.8-.5.5-1.1c-.4-.6-1.3-.8-2.1-.5-.9.4-1.8-.3-2.3-1.7-.9-2.4-.4-4.7 1-4.7.4 0 .5.7.2 1.7-.4 1-.2 1.4.5.9.6-.3 1-1.5.9-2.6-.1-1-.4-1.7-.8-1.4-1.6 1-3.9-4.6-3.4-8.6.3-2.6.1-4-.6-4-.6 0-.9.7-.5 1.5.3.9 0 1.5-.8 1.5-2 0-.8-4 1.3-4 1.3-.1 1.2-.4-.5-1.8-1.9-1.6-2-2-.6-4 1.3-2 1.3-2.4-.2-4.1-1.1-1.3-1.4-2.1-.7-2.6.6-.3 1.1-1.1 1.1-1.8 0-2.2-2.1 1-2.4 3.6-.2 1.8.1 2.4 1.1 2 .9-.4 1.1 0 .7 1.1-.4.9-1.2 1.5-1.8 1.3-1.1-.4-1.2-1-1.5-5.1-.1-2-.1-2-1.6 0-1.5 1.8-1.5 1.8-.8 0 .4-1.3.3-1.7-.5-1.2-.7.4-1.2.2-1.2-.3 0-.6.4-1.1.9-1.1s1.2-.7 1.5-1.6c.3-.8.2-1.2-.4-.9-.6.3-1 .1-1-.4 0-.6 1-1.2 2.3-1.2 1.5-.1 1.7-.3.6-.6-1.6-.4-3.3-3.7-3-5.6.1-.4-.8-.3-2 .4-1.9.9-2.1.9-1.6-.4.3-.9-.1-2.1-.9-2.7-1.7-1.5-1.7-2-.4-4 .9-1.3 1.2-1.2 2.5.4.8 1.1 1.5 1.5 1.5 1 0-.6-1.1-2.1-2.6-3.5-1.4-1.3-2.3-1.7-1.9-.9.3.9-.4 2.1-1.7 2.9-2.1 1.3-2.2 1.3-1-.2 1.1-1.3 1.1-1.9 0-3.6-1-1.7-1-2.5-.1-4 1.1-1.7 1-1.9-.7-1.6-1.2.2-2.4-.4-3-1.5-1.5-2.8-1.3-3.1 1.6-1.9 1.5.5 2.9.7 3.2.4.3-.3 0-.5-.7-.5-.8 0-1.1-.6-.7-1.6.5-1.4.4-1.5-.8-.5-.9.7-1.7.8-2 .2-.3-.5-1.6-.7-2.9-.4-1.6.3-1.8.2-.8-.5.7-.5.9-1.2.4-1.5-.5-.4-.8-2-.5-3.8.3-2.2.1-3-.7-2.5-.6.4-1.1.1-1.1-.6 0-.8-.7-2.3-1.6-3.4-.8-1-1.3-1.3-.9-.7.3.7.1 1.3-.6 1.3-.8 0-.8.4.1 1.5 1.1 1.3 1 1.4-.4.9-.9-.3-1.6-1.4-1.6-2.4 0-2.2-2.9-3.5-3.6-1.6-.3.7-1.2 1.3-2.1 1.3-1.4 0-1.4-.1.1-1.2.8-.7 1.2-1.6.8-2-.4-.5-.2-.6.3-.2.6.3 1.6-.3 2.3-1.4.8-1.2.9-1.9.1-1.9-.5 0-.7-.5-.3-1.1.4-.8 0-.8-1.5 0-1.7 1-2 .9-1.5-.4.4-.9.3-1.5-.2-1.4-2.5.4-3.6-.2-3-1.7.5-1.4.4-1.5-.9-.4s-1.4 1-.9-.4c.3-.9.2-1.6-.3-1.6-.6 0-1.5-1.2-2.2-2.8l-1.2-2.7 2 2.5c1.7 2.1 2.1 2.2 3.5 1 1.4-1.1 1.9-1.1 2.9 0 1 1 .9 1.2-.4.8-1.2-.5-1.4 0-1.1 2.3.4 2.6.7 2.8 2.1 1.7 2.6-2 2.7-2.2.8-1.5-1.4.5-1.6.3-.8-1.2 1.5-2.6-3.3-6.7-7.4-6.4-2.8.2-2.8.2-.8-.8 2.9-1.5 3.6-4.7 1.1-5.4-1-.4-2.5-.2-3.2.4-1 .8-1.1.4-.8-2.2.5-3 .4-3.1-1.3-1.7-1.7 1.4-1.7 1.4-.7-.7 1-1.8.9-2.5-.6-3.9-1.6-1.7-1.6-1.7.5-1.2 1.2.3 2.4.1 2.6-.6.7-1.6-4.5-1.7-5.8 0-.8 1.1-1 .5-1.1-2.3-.1-2.1.1-3.2.3-2.6.9 2.5 1.8 1.2 1.9-2.7.1-2.2-.2-3.7-.7-3.4-.5.3-.6 1-.3 1.6.5.8.1.9-1 .5-1.4-.6-1.7-.3-1.2 1 .6 1.4.5 1.5-.5.6-1-1-.9-1.6.2-2.9.9-1.2 1-1.5.2-1-.7.4-1.3.2-1.3-.3 0-.6.5-1.1 1-1.1 1.4 0 1.2-1.3-.4-3.5-1.2-1.7-1.6-1.8-3.2-.5-1.8 1.4-1.8 1.4-.1-.7 1.5-1.7 1.6-2.5.7-4.3-1.1-2.1-1.2-2.1-3.3-.3l-2.1 1.8 2-2.7c1-1.5 2.3-2.8 2.7-2.8.5 0 .6-.4.2-1-.3-.5-1.2-.7-1.9-.4-.7.3-1.6-.2-1.9-1.1-.5-1.2-.1-1.4 2.1-.9 1.9.4 2.3.3 1.3-.4-.8-.6-1.2-2-.9-3.6.3-1.4.1-2.6-.3-2.6-.5 0-.9-.6-.9-1.4 0-.8-.4-1.8-1-2.1-.5-.3-.8 0-.5.7 1.3 3.6 1.2 6.7 0 7.2-.9.3-1.2 0-.8-1 .3-.8-.3-2.1-1.3-2.9-1.1-.8-1.4-1.4-.6-1.5.6 0 1.2-.5 1.2-1.1 0-.5-.4-.8-1-.4-.5.3-.5-.6.1-2.4.6-1.6 1.7-3.2 2.5-3.5.8-.3 1.4-1.1 1.4-1.7 0-.8-.6-.7-1.7.3-2.1 1.7-5.1 3.5-4.1 2.3.4-.4.3-1.4-.3-2.2-.6-.7-.8-1.3-.3-1.3s.2-.5-.6-1c-1.2-.8-1.2-1 .5-1 1.9 0 1.9-.1-.2-1.8-1.2-.9-2.2-2.6-2.1-3.7.1-1.1-.2-3-.6-4.1-.5-1.7-.2-2.3 1.4-2.7 3.1-.8 2.6-3.6-.6-3.4-1.5.1-2.8-.4-3-1.1-.1-.7 0-.8.3-.2.2.5.9.8 1.4.4.5-.3.6-1.1.2-1.7-.4-.6-.8-2.3-.9-3.6-.2-1.7 0-2.1.5-1.3.7 1.1.9 1.1 1.4-.2.3-.8.1-1.8-.5-2.2-1.2-.8-4 2.4-3.2 3.7.3.5-.3.6-1.2.2-1.1-.4-1.3-.8-.6-1.1 1.5-.5 1.6-3.2.1-3.2-.6 0-.9-.7-.6-1.4.4-.9-.2-1.7-1.4-2.1-2.3-.8-2.5-2.1-.3-2.9.8-.3 1.2-.2.9.3-.6 1.1 3.3 2.6 4.2 1.7.4-.3-.2-.6-1.3-.6-1.7 0-1.6-.3.6-2.1 1.4-1.1 2-1.8 1.3-1.5-.6.3-1.4 0-1.6-.6-.3-.8-.6-.6-.6.5-.1 1-.5 1.6-1.1 1.2-.5-.3-.7-1.3-.4-2.3.4-1.2-.1-1-1.5.7-1.2 1.3-2.1 1.7-2.1 1s.7-2.1 1.6-3.1c1.3-1.4 1.4-2.1.5-3.2-.9-1.1-.9-1.7.2-2.8 1.2-1.2 1.2-1.6-.1-2.8-1.4-1.3-1.5-1.2-1 .2.4 1 .1 1.9-.8 2.2-.8.3-1.2.1-.9-.4.3-.5-.3-1.8-1.5-3-1.1-1.1-2-3.2-2-4.6 0-2.1-.3-2.4-2.1-1.9-1.6.5-2 .3-1.7-.6.3-.8-.4-2.9-1.4-4.7-2.2-3.9-2.2-4-.4-4.4 1.2-.2 1.3-.6.1-2.1-1.2-1.7-1.4-1.6-2 1.4-.5 2.2-.4 3.4.4 3.7 1.6.5 1.4 1.9-.5 2.6-.9.3-1.2.2-.9-.5.4-.5.2-1.6-.4-2.3-.7-.8-1-2-.9-2.7.2-.9-.6-1.4-1.9-1.3-1.8 0-2-.2-1.2-1.3.6-.7 1.5-1 2-.7.5.3.9 0 .9-.5 0-1.3-2.7-1.4-3.5-.2-.9 1.5-4.4.9-3.8-.7.3-.7 1.1-1.1 1.8-.8.6.2 1.8 0 2.6-.5 1-.6.8-.9-1-.9-2.4 0-2.4 0-.5-2.2 1.5-1.9 1.6-2 .2-.9-1.5 1.1-1.8 1.1-1.8-.2 0-.8-.6-2-1.4-2.6-1.1-.9-1.3-.6-1 1.6.2 1.6.1 2-.2 1-.5-1.4-.9-1.6-2-.6-1.9 1.5-1.8-.1.2-2.9.8-1.2 1-2.2.5-2.2-.6 0-1.1.5-1.1 1.2 0 .9-.3.9-1.2 0-.7-.7-2-1.2-3-1.2s-1.8-.5-1.8-1.1c0-.6.9-.9 2-.6 1.1.3 2.3.1 2.6-.4.3-.5 0-.9-.6-.9-.7 0-1.9-.8-2.8-1.8-1-1-1.3-1.2-.8-.4 1.6 2.3-1.4 3.3-4.6 1.5-1.5-.9-2.5-2-2.2-2.5.3-.4-.2-.5-1.1-.2-.8.4-2.1.1-2.9-.5-.7-.6-1.7-.7-2.1-.3-.5.4-.5.2-.2-.4.4-.7.1-2.4-.7-3.8-1.2-2.4-1.4-2.5-2.1-.9-.5 1-.9 2.1-.9 2.5-.2 1.8-2.1.7-2.4-1.4-.2-1.2-1.3-3-2.5-4-2.6-2.3-3.5-2.3-1.4 0 2 2.2 2.2 4.2.5 4.2-.6 0-.9-.3-.5-.6.8-.8-1.8-3.4-3.5-3.4-1 0-1 .2.1.9.8.5 1.1 1.6.8 2.5-.6 1.5-.8 1.5-2.6-.1-1.4-1.2-1.7-2-1-2.9.6-.8.5-1.4-.7-1.8-2.3-.9-3.1-.7-1.4.4 1.3.9 1.3 1 0 1-.9 0-2.2-.6-2.9-1.3-1.2-1-1.3-.9-.7.7.5 1.4.3 1.7-1 1.2-.9-.4-2.3-.1-3.1.5-1.7 1.5-3.3.1-3.6-3-.2-2.7-1.7-2.8-1.7-.1zm0 3.9c0 1-2.6.9-3.6-.2-.4-.4.2-.7 1.4-.7s2.2.4 2.2.9zm-18 4.5c0 .2-.8 1-1.7 1.7-1.6 1.3-1.7 1.2-.4-.4 1.3-1.6 2.1-2.1 2.1-1.3zm46.5 3.6c-.3.5-1.2 1-1.8 1-.7 0-.6-.4.3-1 1.9-1.2 2.3-1.2 1.5 0zm-51 1.8c-.3.3-1.1 0-1.8-.7-.9-1-.8-1.1.6-.5 1 .3 1.5.9 1.2 1.2zm58.1.9c-1 1-1.9-.5-1-1.8.6-1.1.8-1.1 1.2 0 .2.7.1 1.5-.2 1.8zm7.1 3.5c-.3.8-.6.5-.6-.6-.1-1.1.2-1.7.5-1.3.3.3.4 1.2.1 1.9zm4.6.4c1.1 1.1-.3 2.4-1.8 1.8-.8-.4-1.2-1-.9-1.5.6-1.1 1.8-1.2 2.7-.3zM327 143c0 .5-.2 1-.4 1-.3 0-.8-.5-1.1-1-.3-.6-.1-1 .4-1 .6 0 1.1.4 1.1 1zm61.6 21.9c13.9 6.5 22.4 15.5 28 29.6 2.6 6.6 2.8 8 2.9 22 0 10.6-.4 15.7-1.3 17.3-1.3 2.3-1.3 2.3 2.1 1.7 2.9-.6 3.7-.3 4.6 1.3 1.9 3.5 1.2 7.2-2.4 14.9-1.9 4.1-3.5 7.8-3.5 8.4 0 .6-1.1 2.5-2.4 4.2-1.3 1.8-2.9 5.2-3.6 7.7-.6 2.5-2.4 6.8-4 9.6l-2.8 5.1 8.1 1.2c25.1 3.9 50.6 15.5 62.6 28.6 7.2 8 9.4 13.6 13 33 1.8 9.4 4.3 19.6 5.8 23 6.5 15.2 13.9 38.8 15.8 50 .3 2.2 2.4 8.6 4.6 14.3 6.7 17.7 8.4 34.1 5.4 51.8-1.9 10.8-3.6 16.8-6.4 22.2-3.6 7-3.2 7.6 7.2 11.7 25.6 10.1 77.4 45.3 83.2 56.5.8 1.5 2 6.8 2.6 11.6 1 7.6.9 9.8-.5 15.3-2 7.9-4.5 11.5-11 15.5-13.6 8.5-15.4 8.7-71.1 9.6-64.8 1-78.1 2.5-93.3 10.1-4.6 2.3-10.6 6.2-13.3 8.6-4.1 3.7-5.2 5.5-6.9 11.2-2.4 8.1-4.8 11.4-10.1 14.1-7.9 4.1-13.7 2.2-23.7-7.9-8.2-8.4-10.5-13.6-10.4-24.2 0-5.1.6-8.2 2.6-12.4 3.1-6.9 12.3-20.3 14.8-21.6 3.9-2.1 1.5-2.9-9-2.9-8.5 0-12.2.5-16.8 2.1-6.3 2.3-11.6 3.1-10.8 1.7.3-.4 0-.8-.5-.8-2.2 0-2.6-.2-4.3-1.7-1-.9-2.8-1.6-4-1.7-1.3-.1-2.2-.7-2.1-1.4.4-1.5-1.3-1.6-2.2-.2-.5.8-1.1.7-2.1-.1-.7-.6-1.2-1.5-.9-1.8.4-.7-.3-.9-4.2-1.2-1-.1-2.4-.7-3.2-1.3-1.2-.9-1.3-.7-.8 1.4.4 1.4.7 3.1.7 3.8 0 .8.5 1 1.2.6.7-.5.9-.2.6.7-1.2 3.3 1.2 14.7 4.6 21.9 4.2 8.6 4.3 9.7 1.6 15-2.5 4.8-7.5 8.3-15.4 10.6-4.9 1.4-7.2 2.9-13.3 8.6-4.1 3.9-9.6 8-12.6 9.3-13.7 6.2-37 7.3-47.9 2.3-6.3-2.9-9.3-6.6-10.3-12.8-1.3-7.5 4.3-14.1 15.4-18.6 5.9-2.3 9.6-7.2 18-23.7l7.4-14.5-.6-8.9c-1-13.3-4.1-26.5-9.3-38.8-11-25.9-12.8-29.7-17.1-36.7-15.3-24.7-23.8-50.8-25-75.9-.6-14.3.5-20.8 4.3-25 1.4-1.6 1-2-6.5-5.9-13.9-7.2-20.2-14.7-20.1-23.9.1-4.4 3.5-10.5 10.2-18.2 3.5-4.1 9.8-11.7 14-16.9 7.7-9.6 16.8-18.3 26.8-25.7 4.4-3.2 6.5-5.7 10-12.2 6.3-11.8 14.7-19.7 25.7-24 2.7-1.1 9.9-2.6 15.9-3.5 12.6-1.9 36.5-3.7 37.8-2.9 1 .7.9.3-2.6-6.3-1.4-2.7-3.3-7.7-4.2-10.9-.8-3.3-2.2-6.5-3.1-7.1-.8-.6-1.5-1.8-1.5-2.5 0-.8-.7-2.5-1.6-3.8-1.5-2.1-5.3-17.9-5.4-22.4 0-2.6 4-3.8 6.7-2.1 1.9 1.2 2.6 1.2 4.3.2 1.7-1.1 2.2-1 3 .2.8 1.2 1 1 1-1.1 0-3.4 1.7-4.9 5.7-4.9 1.8 0 3.3-.3 3.3-.8 0-1.3-7.8-.1-9.1 1.4-.6.8-1.8 1.4-2.7 1.4-.8 0-2.3.7-3.3 1.6-1.7 1.5-1.8 1.4-2.4-2-.4-1.9-.5-8.8-.3-15.3.4-11.4.5-12.1 4.5-20.4 3-6.4 5.7-10.3 10.4-15.1 14.5-14.5 29.8-18.2 45.5-10.9zm53.1-1.9c.1 1.1-.2 1.8-.8 1.5-1.1-.7-1.2-3.5-.1-3.5.4 0 .8.9.9 2zm2.9 4.1c.3.6.2 1.5-.4 2.1-.6.6-1.1.2-1.5-1.1-.5-2.2.7-2.9 1.9-1zm3.8 7c-.8 1.4-3.1 1.1-3.1-.5 0-.8.8-1.1 1.9-.8 1 .2 1.5.8 1.2 1.3zm6.1 36.7c-.3.3-1.1 0-1.8-.7-.9-1-.8-1.1.6-.5 1 .3 1.5.9 1.2 1.2zm2.3 6.7c-.3.3-.9-.2-1.2-1.2-.6-1.4-.5-1.5.5-.6.7.7 1 1.5.7 1.8zM294 219.6c0 .2-.7.4-1.5.4s-1.5-.4-1.5-1c0-.5.7-.7 1.5-.4.8.4 1.5.8 1.5 1zm-6.9 13.1c1.3 1.6 1.2 1.7-.3.5-.9-.8-2.3-1-2.9-.6-.8.4-.9.3-.5-.4 1-1.7 2.1-1.5 3.7.5zm-4.2 3.5c-.5 1-1.2 1.8-1.5 1.8-.3 0-.2-.5.1-1 .3-.6.1-1-.4-1-.6 0-1.1.5-1.1 1.2 0 .6-.2.9-.5.6-1.1-1.1.6-3.4 2.4-3.4 1.6 0 1.7.4 1 1.8zm183.9 5.6c-1 .2-1.8 1.1-1.9 2 0 1.1-.2 1.3-.6.4-.7-1.7 1.6-4.4 3.1-3.5.7.5.5.9-.6 1.1zM277 244c0 .5-.2 1-.4 1-.3 0-.8-.5-1.1-1-.3-.6-.1-1 .4-1 .6 0 1.1.4 1.1 1zm-2.7 7.1c-.6.6-.9 1.9-.6 2.8.5 1.3.3 1.4-.7.4-1.1-1-1.1-1.5 0-2.8.7-.8 1.5-1.5 1.8-1.5.3 0 .1.5-.5 1.1zm195.5 8c-2 1.3-2.8 1.1-2.2-.5.3-.8 1.2-1.2 2.1-.9 1.2.5 1.2.7.1 1.4zm3.3 8.2c-1 .9-1.1.8-.5-.6.3-1 .9-1.5 1.2-1.2.3.3 0 1.1-.7 1.8zM263 269.4c0 .3-.4.8-1 1.1-.5.3-1 .1-1-.4 0-.6.5-1.1 1-1.1.6 0 1 .2 1 .4zm218 5c0 .2-.8 1-1.7 1.7-1.6 1.3-1.7 1.2-.4-.4 1.3-1.6 2.1-2.1 2.1-1.3zm-237 8.2c0 .3-.7 1.2-1.5 2.1-1.2 1.2-1.3 1.8-.4 2.9 1 1.2.9 1.3-.5.8-1.9-.7-1.9-.6-.4-3.9 1-2.2 2.8-3.5 2.8-1.9zm-7 5.1c0 2.5-1.6 4.8-2.4 3.5-.3-.6-.2-1.3.3-1.7.6-.3.8-1.2.4-2-.3-.8 0-1.5.6-1.5s1.1.8 1.1 1.7zm-15.6 13.9c.3.8.2 1.2-.4.9-.6-.3-1-1-1-1.6 0-1.4.7-1.1 1.4.7zm272.6-.2c0 .3-.4.8-1 1.1-.5.3-1 .1-1-.4 0-.6.5-1.1 1-1.1.6 0 1 .2 1 .4zm6 1.6c1.2.8 1 1-.9 1-2 0-2.1.2-1.1 1.5 1.8 2.2.3 1.8-1.9-.4-2-2-1.9-2.2 1.9-3 .3 0 1.2.4 2 .9zm3.7 14.2c-.3.8-.6.5-.6-.6-.1-1.1.2-1.7.5-1.3.3.3.4 1.2.1 1.9zm-305 2.3c0 .8-.4 1.2-.9.9-.5-.3-.6-1-.3-1.5.9-1.3 1.2-1.1 1.2.6zm307.2.6c-1.6 1-2.3.4-1.4-1 .3-.6 1.1-.8 1.7-.5.6.4.5.9-.3 1.5zM183 329.6c0 .8-.5 1.2-1 .9-.6-.4-.8-1.1-.5-1.6.9-1.4 1.5-1.1 1.5.7zm-.5 3.3c.3.5.1 1.2-.5 1.6-.5.3-1-.1-1-.9 0-1.8.6-2.1 1.5-.7zm332.9 1.7c2.1.8 2.1 2.4 0 2.4-.8 0-1.3-.4-1-.9.4-.5 0-1.2-.6-1.4-.7-.3-1-.6-.6-.6.3-.1 1.3.2 2.2.5zm.6 4.4c0 .5-.5 1-1.1 1-.5 0-.7-.5-.4-1 .3-.6.8-1 1.1-1 .2 0 .4.4.4 1zm-344 8.4c0 .3-.4.8-1 1.1-.5.3-1 .1-1-.4 0-.6.5-1.1 1-1.1.6 0 1 .2 1 .4zm348 2.6c.8.5 1.1 1.2.8 1.6-.4.3-1.4-.1-2.3-1-1.8-1.7-.9-2.1 1.5-.6zm2 4.4c0 .3-.4.8-1 1.1-.5.3-1 .1-1-.4 0-.6.5-1.1 1-1.1.6 0 1 .2 1 .4zm1.4 10.5c-.2.3-1.2-.3-2.2-1.3-1.6-1.7-1.6-1.8.5-.5 1.2.7 2 1.5 1.7 1.8zM165 370.6c0 .8-1.9 1.3-2.4.6-.3-.5.1-.9.9-.9s1.5.2 1.5.3zm-3.2 5.3c1.1.6.9.9-.5 1.3-1.2.3-2 0-2-.8 0-1.6.6-1.7 2.5-.5zm367.8 5.3c.4.7.4 1-.1.6-.4-.4-1.4 0-2.2 1-1.3 1.5-1.3 1.5-.3-.6 1.2-2.5 1.6-2.7 2.6-1zm-368.4 5.3c.4 2.1.3 2.3-1.4 1.4-1.5-.8-1.6-1.2-.6-2.4.7-.8 1.4-1.4 1.4-1.5.1 0 .4 1.1.6 2.5zM531 385c0 .5-.2 1-.4 1-.3 0-.8-.5-1.1-1-.3-.6-.1-1 .4-1 .6 0 1.1.4 1.1 1zm-371 6c0 .5-.2 1-.4 1-.3 0-.8-.5-1.1-1-.3-.6-.1-1 .4-1 .6 0 1.1.4 1.1 1zm.4 3.5c-.4.8-1.1 1.5-1.6 1.5-.6 0-.5-.6.2-1.5.7-.8 1.4-1.5 1.6-1.5.2 0 .1.7-.2 1.5zm4.1 3.5c.3.5.2 1-.4 1-.5 0-1.3-.5-1.6-1-.3-.6-.2-1 .4-1 .5 0 1.3.4 1.6 1zm-1 5c.3.6-.1.7-.9.4-1.8-.7-2.1-1.4-.7-1.4.6 0 1.3.4 1.6 1zm372.5 0c0 .5-.5 1-1.1 1-.5 0-.7-.5-.4-1 .3-.6.8-1 1.1-1 .2 0 .4.4.4 1zm-2 6c0 .5-.5 1-1.1 1-.5 0-.7-.5-.4-1 .3-.6.8-1 1.1-1 .2 0 .4.4.4 1zm-368 4c0 .5-.7 1-1.5 1s-1.5-.5-1.5-1c0-.6.7-1 1.5-1s1.5.4 1.5 1zm375 2c0 .5-.4 1-1 1-.5 0-1-.5-1-1 0-.6.5-1 1-1 .6 0 1 .4 1 1zm-2 2.4c0 .3-.4.8-1 1.1-.5.3-1 .1-1-.4 0-.6.5-1.1 1-1.1.6 0 1 .2 1 .4zm3 6.7c0 .6-.4.7-1 .4-.5-.3-1-1.1-1-1.6 0-.6.5-.7 1-.4.6.3 1 1.1 1 1.6zM173.5 431c.3.5.1 1-.4 1-.6 0-1.1-.5-1.1-1 0-.6.2-1 .4-1 .3 0 .8.4 1.1 1zm1 4.1c1.1 1.6.1 1.9-1.3.3-.7-.8-.8-1.4-.3-1.4s1.3.5 1.6 1.1zm8.5 4.9c0 .5-.2 1-.4 1-.3 0-.8-.5-1.1-1-.3-.6-.1-1 .4-1 .6 0 1.1.4 1.1 1zm1.1 6.7c1.3 1.6 1.2 1.7-.3.4-1-.7-1.8-1.5-1.8-1.7 0-.8.8-.3 2.1 1.3zm365.2 1.9c-.4 1.1-.9 1.2-1.9.3-1.8-1.5-1.8-1.4.5-1.6 1.4-.1 1.8.3 1.4 1.3zm-2.6 3.6c-.3.8-.6.5-.6-.6-.1-1.1.2-1.7.5-1.3.3.3.4 1.2.1 1.9zm-358.7.3c0 1.2-1.9 1.2-2.3 0-.4-.9-.1-1.2.9-.8.7.3 1.4.7 1.4.8zM553.7 464c-.1 1.2-.5 1.6-1 1.1s-.6-1.4-.3-2c1.1-1.6 1.5-1.3 1.3.9zm-361.4 1.9c-.4.3-1 1-1.4 1.4-.3.4-1.1.2-1.8-.6-.9-1.2-.7-1.5 1.4-1.5 1.4 0 2.2.3 1.8.7zM557 471c0 .5-.5 1-1.1 1-.5 0-.7-.5-.4-1 .3-.6.8-1 1.1-1 .2 0 .4.4.4 1zm4 1.5c.7.8.8 1.5.2 1.5-.5 0-1.5-.7-2.2-1.5-.7-.8-.8-1.5-.2-1.5.5 0 1.5.7 2.2 1.5zm-361 .5c0 .5-.2 1-.4 1-.3 0-.8-.5-1.1-1-.3-.6-.1-1 .4-1 .6 0 1.1.4 1.1 1zm359.4 1.8c.3.5-.1.9-.9.9s-1.2-.4-.9-.9c.3-.4.7-.8.9-.8.2 0 .6.4.9.8zm3.2 2.9c-1 1-1.9-.5-1-1.8.6-1.1.8-1.1 1.2 0 .2.7.1 1.5-.2 1.8zm-3.6.3c0 .5-.5 1-1.1 1-.5 0-.7-.5-.4-1 .3-.6.8-1 1.1-1 .2 0 .4.4.4 1zm7.5.9c.3.5-.8.9-2.5.9-2.1-.1-2.7-.4-1.8-.9 1.7-1.1 3.5-1.1 4.3 0zm-359 10.1c.3.5.1 1-.4 1-.6 0-1.1-.5-1.1-1 0-.6.2-1 .4-1 .3 0 .8.4 1.1 1zm364.5 1c0 .5-.7 1-1.6 1-.8 0-1.2-.5-.9-1 .3-.6 1-1 1.6-1 .5 0 .9.4.9 1zm1.5 3c.3.5.2 1-.4 1-.5 0-1.3-.5-1.6-1-.3-.6-.2-1 .4-1 .5 0 1.3.4 1.6 1zM202 495c0 .5-.4 1-1 1-.5 0-1-.5-1-1 0-.6.5-1 1-1 .6 0 1 .4 1 1zm3 1c-1.2.7-1.1 1.3 1 3.5 1.8 1.9 2 2.4.7 1.9-.9-.3-1.7-1-1.7-1.6 0-.5-.4-.7-.9-.4-.4.3-.7-.5-.6-1.7.3-2.8.3-2.7 1.8-2.7.8 0 .7.3-.3 1zm369.2.8c-.7.2-1 .8-.6 1.3.3.5-.2.9-1 .9-1.3 0-1.4-.3-.4-1.9.7-1.1 1.7-1.7 2.2-1.4.6.4.5.8-.2 1.1zm-366.4 12.8c-1.2 1.2-1.4 1.1-1.4-.5 0-1.1.4-1.7.8-1.5.4.3.8-.1.9-.8 0-1 .2-1 .6 0 .3.8-.1 2-.9 2.8zm2.2 5.5c0 .5-.5.9-1.1.9-.5 0-.7-.5-.4-1 .3-.6.1-1-.4-1-.6 0-1.1-.5-1.1-1.1 0-.8.5-.8 1.5.1.8.7 1.5 1.6 1.5 2.1zm-.7 3.4c-.3.9-.8 1.4-1 1.1-.3-.3-.2-.9.2-1.5.9-1.6 1.5-1.3.8.4zM207 520c0 .5-.4 1-1 1-.5 0-1-.5-1-1 0-.6.5-1 1-1 .6 0 1 .4 1 1zm403 8.2c0 .6-.6.5-1.5-.2-.8-.7-1.5-1.4-1.5-1.6 0-.2.7-.1 1.5.2.8.4 1.5 1.1 1.5 1.6zm3.5 1.8c.3.5.2 1-.4 1-.5 0-1.3-.5-1.6-1-.3-.6-.2-1 .4-1 .5 0 1.3.4 1.6 1zM211 534.1c0 .5-.4.9-1 .9-.5 0-1-.7-1-1.6 0-.8.5-1.2 1-.9.6.3 1 1 1 1.6zm1 11.9c0 .5-.5 1-1.1 1-.5 0-.7-.5-.4-1 .3-.6.8-1 1.1-1 .2 0 .4.4.4 1zm-5.3 12.2c-.3.8-.6.5-.6-.6-.1-1.1.2-1.7.5-1.3.3.3.4 1.2.1 1.9zm427.7.4c.4.9.2 1.3-.5.8-.7-.4-1-.1-.7.7.3.8 1 1.4 1.6 1.4.5 0 1.4.3 1.8.7 1.1 1.2-.9.9-3.9-.5-2.7-1.2-3.6-2.7-1.6-2.7.5 0 .7-.5.4-1-.3-.6 0-1 .8-1s1.8.7 2.1 1.6zm4.7 14.7c-.7.7-1.4.8-2.1.1-.6-.6-.2-1 1.2-1.1 1.6-.2 1.8.1.9 1zM199 592c0 .5-.5 1-1.1 1-.5 0-.7-.5-.4-1 .3-.6.8-1 1.1-1 .2 0 .4.4.4 1zm436 3.1c0 .5.4.8.8.5.5-.3.9.1.9.8 0 .8-.6 1.2-1.3.9-1.6-.6-2.7-3.3-1.4-3.3.6 0 1 .5 1 1.1zm-2 2.9c.8.5 1.1 1 .5 1-.5 0-1.7-.5-2.5-1s-1-1-.5-1c.6 0 1.7.5 2.5 1zm-440.8 18.2c-1.6 1.6-4.9 2-4.9.5 0-.7 1.4-1.3 3-1.4 2.3-.2 2.8 0 1.9.9z"/><path d="M347.5 224c-.3.4 2.6 1 6.3 1.2 3.7.3 8.4 1.3 10.6 2.2 3.6 1.5 3.8 1.8 3.4 5.5-.4 4.5.6 4.6 1.5.1.6-2.6 1.1-3 4.1-3 2.2 0 3.8.6 4.4 1.6.7 1.3 1.1 1.2 2.6-1l1.6-2.6h-6.4c-3.5 0-7.9-.7-9.9-1.5-4-1.7-17.6-3.5-18.2-2.5zm47.5 4c6.3.4 12.3 1 13.3 1.5 2 .9 3.1 4.4 2.3 7.7-.3 1.3-.3 1.7 0 1 .4-.8 2-2.3 3.8-3.4 1.7-1.1 2.3-1.7 1.2-1.4-1.2.4-2.4-.2-3.7-1.9-2.7-3.4-7.7-4.5-18.9-4.3l-9.5.1 11.5.7zm-42.5 70c.3.5 1.1 1 1.6 1 .6 0 .7-.5.4-1-.3-.6-1.1-1-1.6-1-.6 0-.7.4-.4 1zm41.5 0c-.8.5-1.2 1.2-.9 1.5.4.3 1.2-.1 1.9-1 1.4-1.7 1.1-1.9-1-.5zm-38 2.1c0 .6.9 1.3 2 1.6 1.1.3 1.7 1 1.3 1.6-.3.5-.1.7.5.3.6-.3 1.3-.2 1.7.3.3.6 1.3.7 2.2.4.9-.4 1.4-.2 1.1.3-.7 1 .2 1.1 10.5 1.6 4.6.2 7.2-.1 7.9-1 .6-.6 1.9-1.2 2.9-1.2 1.1 0 2.8-.9 3.9-2s1.9-2 1.8-2c-.2 0-3 1.1-6.3 2.5-8.4 3.5-15.2 3.3-23.2-.5-3.5-1.6-6.3-2.4-6.3-1.9zm-69.2 67.3c-2.6 2-5.7 5-6.9 6.8l-2.3 3.1 5.5 5.1c3 2.8 9.3 7.7 13.9 10.9 7.5 5.1 8.5 5.6 8.8 3.8.3-1.9-3.5-15.5-7.5-27.1-2.5-7.1-4.9-7.6-11.5-2.6zm167.4 55c-.7 3.9-1.9 10-2.7 13.6-3 13-5.7 32.6-5.2 37.5.7 7.5 10.8 26.8 15.5 29.5 1.9 1.2 3.6 1.9 3.8 1.7.2-.1.8-4.5 1.4-9.7 1.3-11.3 3.4-22 6.2-31.7l2-7.2-5.8-11.3c-3.1-6.2-7.6-15.4-9.9-20.4l-4.1-9.1-1.2 7.1zm-166.2 15c0 .2.7.7 1.6 1 .8.3 1.2.2.9-.4-.6-1-2.5-1.4-2.5-.6zm4 2.1c0 .2 1 1 2.3 1.6 2 1.1 2.1 1.1.8-.4-1.3-1.6-3.1-2.3-3.1-1.2zm6 3.9c0 .2.8 1 1.8 1.7 1.5 1.3 1.6 1.2.3-.4s-2.1-2.1-2.1-1.3zm4.4 7.9c0 2.5.4 4.5.9 4.4.5-.1 1.2.4 1.4 1 .3.7 0 1.3-.6 1.3s-1.1.5-1.1 1.2c0 .8.6.6 1.7-.4 1.3-1.4 1.4-2 .3-3.2-1-1.3-1-1.6.4-1.6 2.2 0 2-1-.7-4.4l-2.3-2.8v4.5zm3.1.7c.3.5-.1 1-1 1s-1.3-.5-1-1c.3-.6.8-1 1-1 .2 0 .7.4 1 1zM397 584.9c-.8.6-1.7.8-2.1.5-.4-.2-.9.5-1.2 1.6-.5 2-.5 2 2.4-.1 1.6-1.1 2.9-2.2 2.9-2.5 0-.6-.3-.5-2 .5zm65.7 13.1c.7 2.5 2.3 3.7 2.3 1.7 0-.8-.6-2-1.4-2.6-1.2-1-1.3-.8-.9.9zM327 598c0 .5.5 1 1.1 1 .5 0 .7-.5.4-1-.3-.6-.8-1-1.1-1-.2 0-.4.4-.4 1zm140 1.5c0 .3 1.2 1 2.6 1.5 1.6.7 2.4 1.6 2.1 2.5-.6 1.3 3.1 7 3.9 6.2.9-.9-.9-3.7-1.9-3-.6.4-.8 0-.4-1 .7-1.9-2.8-6.7-4.9-6.7-.8 0-1.4.2-1.4.5zm-2.2 4.2c.7.3 1.6.2 1.9-.1.4-.3-.2-.6-1.3-.5-1.1 0-1.4.3-.6.6zm11.7 9.8c0 1.3.3 2.1.8 1.8.4-.2.7-1 .7-1.8s-.3-1.6-.7-1.8c-.5-.3-.8.5-.8 1.8zm-98.4-496.9c0 1.1.3 1.4.6.6.3-.7.2-1.6-.1-1.9-.3-.4-.6.2-.5 1.3zm-16.6 1.4c.3.6-.1 1.3-.9 1.6-.9.3-1.6 1-1.6 1.5s.9.4 2-.3c2.1-1.4 2.7-3.8.9-3.8-.5 0-.7.5-.4 1zm14 1c.3.5.8 1 1.1 1 .2 0 .4-.5.4-1 0-.6-.5-1-1.1-1-.5 0-.7.4-.4 1zm32.5 1.9c0 .5.5 1.3 1 1.6.6.3 1 .2 1-.4 0-.5-.4-1.3-1-1.6-.5-.3-1-.2-1 .4zm-67.1 2.8c-1.3 1.6-1.2 1.7.4.4.9-.7 1.7-1.5 1.7-1.7 0-.8-.8-.3-2.1 1.3zm64.3 1.4c.2.6.8 1 1.3 1s1.1-.4 1.3-1c.2-.6-.4-1.1-1.3-1.1s-1.5.5-1.3 1.1zm9.8-.1c0 .5.5 1 1 1 .6 0 1-.5 1-1 0-.6-.4-1-1-1-.5 0-1 .4-1 1zm-3.5 1c-.8 1.3 1.2 4 2.9 4 .6 0 .3-.7-.8-1.5-1-.7-1.5-1.8-1.1-2.4.3-.6.4-1.1.1-1.1-.3 0-.8.5-1.1 1zm-87.5 9.2c0 .7.5 2 1.1 2.8.8 1.2.9 1 .4-.8-.6-2.2.9-3.2 1.8-1.2.3.6.4.5.3-.2-.4-1.7-3.6-2.3-3.6-.6zm104 .8c-.9.6-1 1-.3 1 .6 0 1.5-.5 1.8-1 .8-1.2.4-1.2-1.5 0zm-112.3 4.1c.7.7 1.5 1 1.8.7.3-.3-.2-.9-1.2-1.2-1.4-.6-1.5-.5-.6.5zm-.2 3.9c-.3.5-.2 1 .4 1 .5 0 1.3-.5 1.6-1 .3-.6.2-1-.4-1-.5 0-1.3.4-1.6 1zm124 7.1c-.4.6-.5 1.2-.2 1.5.2.3.7-.2 1-1.1.7-1.7.1-2-.8-.4zm1.2 5c.7.7 1.5 1 1.8.7.3-.3-.2-.9-1.2-1.2-1.4-.6-1.5-.5-.6.5zM304 159.5c0 .8.2 1.5.4 1.5s.6-.7 1-1.5c.3-.8.1-1.5-.4-1.5-.6 0-1 .7-1 1.5zm-4 6.6c0 .5.5.7 1 .4.6-.3 1-.8 1-1.1 0-.2-.4-.4-1-.4-.5 0-1 .5-1 1.1zm-4.5 16.9c.3.5.8 1 1.1 1 .2 0 .4-.5.4-1 0-.6-.5-1-1.1-1-.5 0-.7.4-.4 1zm-3.9 2.7c-.6 1.4-.5 1.5.5.6.7-.7 1-1.5.7-1.8-.3-.3-.9.2-1.2 1.2zM452 185c0 .5.5 1 1 1 .6 0 1-.5 1-1 0-.6-.4-1-1-1-.5 0-1 .4-1 1zm4.5 9c.3.5 1 1 1.6 1 .5 0 .9-.5.9-1 0-.6-.7-1-1.6-1-.8 0-1.2.4-.9 1zm-167.3 3c0 1.4.2 1.9.5 1.2.2-.6.2-1.8 0-2.5-.3-.6-.5-.1-.5 1.3zm169.5 4.7c-1.9 2.2-1.7 7.4.3 9 2 1.6 2.7 1.6 3.4-.2.3-.8.2-1.4-.2-1.4-2.9.5-3.4-.2-1.8-2.5 1-1.5 1.2-2.7.6-3.1-.6-.3-1 .1-1 .9 0 .9-.4 1.6-1 1.6-1 0-.3-2.7 1.3-4.8 1.4-1.8.2-1.4-1.6.5zM286.5 208c0 4.7.2 4.9 1.6 1.3.7-2 .6-3-.3-4-1.1-1-1.3-.6-1.3 2.7z"/><path d="M462.8 206.7c.7.3 1.6.2 1.9-.1.4-.3-.2-.6-1.3-.5-1.1 0-1.4.3-.6.6zm-3.2 8c-.3.8.2 1.3 1.4 1.3 1.1 0 2-.6 2-1.3 0-.8-.7-1.4-1.5-1.4s-1.6.6-1.9 1.4zM281 220c0 .5.5 1 1 1 .6 0 1-.5 1-1 0-.6-.4-1-1-1-.5 0-1 .4-1 1zm-1.4 7.9c-.3.5.1 1.1.9 1.5.8.3 1.5.1 1.5-.4 0-1.3-1.8-2.2-2.4-1.1zM467 229c0 .5.7 1 1.6 1 .8 0 1.2-.5.9-1-.3-.6-1-1-1.6-1-.5 0-.9.4-.9 1zm-202 26.4c0 .8-.9 1.8-2 2.1-1.1.3-2 1.3-2 2 0 1.2.5 1.2 2.4.4 2.5-1.2 4.1-4.5 2.5-5.5-.5-.3-.9.2-.9 1zm-7.3 1.7c.7.7 1.5 1 1.8.7.3-.3-.2-.9-1.2-1.2-1.4-.6-1.5-.5-.6.5zm-26.7 32c0 .5.5.7 1 .4.6-.3 1-.8 1-1.1 0-.2-.4-.4-1-.4-.5 0-1 .5-1 1.1zm-7.5 2.9c-.3.5-.1 1 .4 1 .6 0 1.1-.5 1.1-1 0-.6-.2-1-.4-1-.3 0-.8.4-1.1 1zM503 303.1c0 .5.5.7 1 .4.6-.3 1-.8 1-1.1 0-.2-.4-.4-1-.4-.5 0-1 .5-1 1.1zm-313.6 12c-1.1 1.8 1.4 3.5 2.9 2 1-1.2.9-1.3-.7-.7-1.4.5-1.7.2-1.2-.9.6-1.7 0-2-1-.4zM169 342c-1.2.7-1 .9.7.7 1.2 0 1.9-.5 1.7-.9-.6-1-.6-1-2.4.2zm-1.5 2.8c.2.3-.5 1.2-1.7 2.2-1.5 1.1-1.8 1.9-1 2.4.7.4 1.2.1 1.2-.6s1.2-2.1 2.8-3c2.5-1.6 2.5-1.7.5-1.5-1.2 0-2 .3-1.8.5zm-8.5 8.1c0 1 1.9 2.5 2.5 2 .1-.2-.3-1-1.1-1.7s-1.4-.8-1.4-.3zm369 6.6c-1 1.2-1 1.5.4 1.5.9 0 1.6-.7 1.6-1.5s-.2-1.5-.4-1.5-.9.7-1.6 1.5zm-1.4 4.3c-.2.4.2 1.5.9 2.5.8 1.2 1.5 1.4 2 .8.3-.6.1-1.1-.5-1.1-.7 0-1-.7-.6-1.5.5-1.5-.9-2.1-1.8-.7zm3.2 10.6c-1 .7-1.8 1.7-1.8 2.1 0 .4.6.2 1.3-.4.8-.6 1.6-.9 1.9-.6.2.3.5-.2.5-1s-.1-1.5-.1-1.5c-.1 0-.9.7-1.8 1.4zM153.5 379c-.3.6.1.7.9.4 1.8-.7 2.1-1.4.7-1.4-.6 0-1.3.4-1.6 1zm0 6c.3.5.8 1 1.1 1 .2 0 .4-.5.4-1 0-.6-.5-1-1.1-1-.5 0-.7.4-.4 1zm2.5 13c0 .7-.7 1-1.7.6-1.3-.4-1.2-.1.5 1.3 1.3 1.2 1.8 2.2 1.2 2.6-1.1.7-.4 2.5.8 2.5 1.2 0 1.2-3.9 0-4.6-.7-.4-.6-.9.2-1.4.9-.5.9-.9.1-1.4-.6-.4-1.1-.2-1.1.4zm390 34.1c0 .5.5.7 1 .4.6-.3 1-.8 1-1.1 0-.2-.4-.4-1-.4-.5 0-1 .5-1 1.1zm.6 8.7c-.2.4.4 1.3 1.4 1.9 1.5 1 1.7.9 1.3-.8-.5-2-1.8-2.5-2.7-1.1zm-368.9 8.9c-.4.3-.7 1.1-.7 1.7 0 .6.5.5 1.2-.2.6-.6.9-1.4.7-1.7-.3-.3-.9-.2-1.2.2zm381.6 12c.4.3.2 1.2-.4 1.9-.6.8-.9 2.1-.5 2.9.5 1.3.8 1.4 2 .3 1-.9 1.1-1.7.4-2.6-.7-.8-.7-1.2.1-1.2.7 0 .9-.5.6-1-.3-.6-1.1-1-1.7-1-.6 0-.8.3-.5.7zm4.7 10.4c0 .5.5.7 1 .4.6-.3 1-.8 1-1.1 0-.2-.4-.4-1-.4-.5 0-1 .5-1 1.1zM197 493c0 .5.5 1 1.1 1 .5 0 .7-.5.4-1-.3-.6-.8-1-1.1-1-.2 0-.4.4-.4 1zm387.5 9c.3.5 1.1 1 1.6 1 .6 0 .7-.5.4-1-.3-.6-1.1-1-1.6-1-.6 0-.7.4-.4 1zm10 3.1c-.4.6-.5 1.2-.2 1.5.2.3.7-.2 1-1.1.7-1.7.1-2-.8-.4zM591 507c0 .5.5 1 1 1 .6 0 1-.5 1-1 0-.6-.4-1-1-1-.5 0-1 .4-1 1zm16.5 12c.3.5.8 1 1.1 1 .2 0 .4-.5.4-1 0-.6-.5-1-1.1-1-.5 0-.7.4-.4 1zm3.1.3c.3 1 .9 1.5 1.2 1.2.3-.3 0-1.1-.7-1.8-1-.9-1.1-.8-.5.6zm-5.4 2.1c.7.8 1.6 1.2 2.1.9 1.1-.7-.2-2.3-1.9-2.3-1.2 0-1.2.2-.2 1.4zM199 525.5c-.8.9-.8 1.5-.2 1.5 1.2 0 2.6-1.9 1.9-2.6-.2-.2-1 .2-1.7 1.1zm3 3.5c0 .5.5 1 1.1 1 .5 0 .7-.5.4-1-.3-.6-.8-1-1.1-1-.2 0-.4.4-.4 1zm420.1 5.1c-1 2.6.4 6.3 2 5.4 1.4-.9 1.1-2.5-.6-2.5-1.3 0-1.4-.4-.5-2.1.7-1.1.9-2.3.6-2.6-.3-.3-1 .5-1.5 1.8zm3.8.8c.8.5 1 1.4.6 2.2-.6 1.1-.5 1.1.5.2 1.4-1.2.6-3.3-1.3-3.3-.8 0-.7.3.2.9zM204.8 540c-.9 1-1.2 2.3-.8 3 .6.9 1 .8 1.9-.6.6-1.1 1.1-1.3 1.1-.7 0 2.1 1.6 1.4 1.6-.7 0-2.7-2-3.2-3.8-1zm420.6.1c-.3.6-.1 1.6.4 2.1.8.8 1.1.5.9-1.1-.1-2.4-.3-2.5-1.3-1zm2.6.8c0 .5.7 1.1 1.5 1.5.9.3 1.5 0 1.5-.9 0-.8-.7-1.5-1.5-1.5s-1.5.4-1.5.9zm-426.6 5.3c-.4.6-.2 1.4.4 1.6.6.2.8 1.1.5 2-.4 1.4-.3 1.5.5.2.8-1 .7-1.9-.1-2.9-1-1.2-.8-1.3 1.3-.7 1.9.6 2.1.5 1-.3-2-1.4-2.7-1.4-3.6.1zm427.6.4c0 .6.6 1.7 1.4 2.3 1 .9 1.7.7 2.7-.6 1.2-1.5 1.2-1.6-.5-1-1.2.5-2.3.3-2.8-.5s-.8-.9-.8-.2zm8.3 5.9c0 .8.4 1.2.9.9.5-.3.6-1 .3-1.5-.9-1.3-1.2-1.1-1.2.6zm-435 9.2c-.7.2-1.3 1.1-1.3 1.9 0 .8-.5 1.4-1.1 1.4-.6 0-.9.7-.5 1.5.3.8 0 1.5-.6 1.5s-.8.3-.4.7c.4.5 1.4 0 2.1-1.1.9-1.1 1.9-1.5 2.7-1 1.1.6 1.1.5 0-.8-1-1.3-1-1.7.3-2.2.8-.3 1.5-1 1.5-1.6 0-1.1-.7-1.2-2.7-.3zm436.3 3.1c-.2.4.4.8 1.4.8 1 0 1.6-.4 1.4-.8-.3-.4-.9-.8-1.4-.8-.5 0-1.1.4-1.4.8zm-445 6.1c-.4.7-.5 1.5-.2 1.8.9.9 1.9-.4 1.4-1.8-.4-1.1-.6-1.1-1.2 0zm449.4 4.2c0 .5.5.7 1 .4.6-.3 1-.8 1-1.1 0-.2-.4-.4-1-.4-.5 0-1 .5-1 1.1zm-450.4 3.4c-.9 2.6-.7 3.2.5 1.2.6-1 .9-2.1.6-2.3-.2-.3-.7.2-1.1 1.1zm2.7 5.9c-3.3 1.6-2.8 2.7.7 1.5 1.7-.6 3-1.5 3-2 0-1.1-.8-1-3.7.5zm-5.3 2.7c0 .5.5.7 1 .4.6-.3 1-.8 1-1.1 0-.2-.4-.4-1-.4-.5 0-1 .5-1 1.1zm7-.1c0 .5.5 1 1 1 .6 0 1-.5 1-1 0-.6-.4-1-1-1-.5 0-1 .4-1 1zm-2.4 1.6c-.4.9-.4 1.9-.1 2.2.2.3.7-.3 1.1-1.2.4-.9.4-1.9.1-2.2-.2-.3-.7.3-1.1 1.2zm-2.5 1c0 1.1.3 1.4.6.6.3-.7.2-1.6-.1-1.9-.3-.4-.6.2-.5 1.3zm447.9 9.3c0 .6.4 1.3 1 1.6.6.3.7-.1.4-.9-.7-1.8-1.4-2.1-1.4-.7zm-451.5 2c-.3.6.3.9 1.4.8 1.1 0 1.7-.5 1.5-.9-.7-1.1-2.2-1-2.9.1zm-3.5 1.2c0 .5.5.7 1 .4.6-.3 1-.8 1-1.1 0-.2-.4-.4-1-.4-.5 0-1 .5-1 1.1zm452 .6c0 1.5 1.8 3.5 2.3 2.7.3-.5-.1-1.5-.9-2.2-.8-.7-1.4-.9-1.4-.5zM248 682c0 .5.9 1.4 2 2 1.1.6 2 .9 2 .8 0-.2-.9-1.1-2-2.1-1.1-.9-2-1.3-2-.7z"/></svg>